# xmcd
#
# Track frame offsets:
#	183
#	18353
#	35445
#
# Disc length: 815 seconds
#
# Revision: 3
# Processed by: cddbd v1.5.1PL0 Copyright (c) Steve Scherf et al.
# Submitted via: MusicWizard 7.2.0
#
DISCID=19032d03
DTITLE=Chris Norman and Suzi Quatro - I Need Your Love
DYEAR=1992
DGENRE=Pop
TTITLE0=I Need Your Love (Radio-Mix)
TTITLE1=The Growing Years
TTITLE2=I Need Your Love (Full-Mix)
EXTD=YEAR: 1992
EXTT0=
EXTT1=
EXTT2=
PLAYORDER=
